<svg width="81" height="81" fill="none" xmlns="http://www.w3.org/2000/svg"><circle cx="40.5" cy="40.5" r="40.5" fill="#D9D9D9"/><path fill-rule="evenodd" clip-rule="evenodd" d="M40.5 21.808a18.692 18.692 0 0 0-16.262 27.914 11.66 11.66 0 0 1 9.253-4.549H47.51a11.66 11.66 0 0 1 9.253 4.55A18.692 18.692 0 0 0 40.5 21.807Zm18.56 32.889A23.27 23.27 0 0 0 63.865 40.5c0-12.905-10.461-23.366-23.366-23.366-12.904 0-23.365 10.461-23.365 23.366a23.267 23.267 0 0 0 4.806 14.197l-.012.042.83.965A23.319 23.319 0 0 0 40.5 63.865a23.242 23.242 0 0 0 13.26-4.124 23.494 23.494 0 0 0 4.482-4.037l.829-.965-.012-.042ZM40.5 26.48a7.01 7.01 0 1 0 0 14.02 7.01 7.01 0 0 0 0-14.02Z" fill="#000"/></svg>