<svg width="81" height="81" fill="none" xmlns="http://www.w3.org/2000/svg"><circle cx="40.5" cy="40.5" r="40.5" fill="#D9D9D9"/><path fill-rule="evenodd" clip-rule="evenodd" d="M40.5 21.808a18.692 18.692 0 0 0-16.262 27.914 11.66 11.66 0 0 1 9.252-4.549h14.02a11.658 11.658 0 0 1 9.252 4.55A18.692 18.692 0 0 0 40.5 21.807Zm18.56 32.889A23.269 23.269 0 0 0 63.864 40.5c0-12.905-10.46-23.365-23.365-23.365-12.905 0-23.366 10.46-23.366 23.365a23.267 23.267 0 0 0 4.807 14.197l-.012.042.83.965a23.32 23.32 0 0 0 17.74 8.161 23.242 23.242 0 0 0 13.26-4.124 23.497 23.497 0 0 0 4.482-4.037l.83-.965-.012-.042ZM40.5 26.48a7.01 7.01 0 1 0 0 14.019 7.01 7.01 0 0 0 0-14.02Z" fill="#000"/></svg>