<svg width="40" height="45" fill="none" xmlns="http://www.w3.org/2000/svg"><path d="M25.757 26.25H24.47l-.456-.506c1.652-2.205 2.56-5.02 2.558-7.931 0-2.411-.621-4.767-1.785-6.771-1.163-2.005-2.817-3.567-4.752-4.49a9.305 9.305 0 0 0-6.118-.693c-2.054.47-3.94 1.631-5.421 3.336-1.481 1.704-2.49 3.876-2.898 6.24a13.906 13.906 0 0 0 .603 7.042c.801 2.226 2.158 4.13 3.9 5.469C11.84 29.286 13.888 30 15.982 30c2.623 0 5.034-1.106 6.89-2.944l.44.525v1.482l8.146 9.356 2.427-2.794-8.129-9.375Zm-9.774 0c-4.056 0-7.33-3.769-7.33-8.438 0-4.668 3.274-8.437 7.33-8.437s7.33 3.769 7.33 8.438c0 4.668-3.274 8.437-7.33 8.437Z" fill="#FFF8F8"/></svg>