<svg width="25" height="26" fill="none" xmlns="http://www.w3.org/2000/svg"><path d="M15.565 14.957h-.793l-.281-.289a7.178 7.178 0 0 0 1.576-4.519 7.264 7.264 0 0 0-1.1-3.858 6.632 6.632 0 0 0-2.93-2.557 6.164 6.164 0 0 0-3.77-.395 6.416 6.416 0 0 0-3.343 1.9 7.092 7.092 0 0 0-1.786 3.556 7.357 7.357 0 0 0 .372 4.012 6.87 6.87 0 0 0 2.404 3.116 6.252 6.252 0 0 0 3.626 1.17c1.617 0 3.103-.63 4.248-1.677l.27.3v.844l5.022 5.33 1.496-1.591-5.01-5.342Zm-6.025 0c-2.5 0-4.519-2.147-4.519-4.808 0-2.66 2.018-4.807 4.519-4.807 2.5 0 4.519 2.147 4.519 4.807 0 2.66-2.019 4.808-4.52 4.808Z" fill="#FFF8F8"/></svg>