<svg width="45" height="39" fill="none" xmlns="http://www.w3.org/2000/svg"><path d="M20.994 15.035v-4.727h-5.468V7.156h5.468V2.428h3.646v4.728h5.468v3.152H24.64v4.727h-3.646Zm-7.291 20.487c-1.003 0-1.861-.308-2.576-.926-.715-.618-1.071-1.36-1.07-2.225 0-.867.357-1.61 1.072-2.227.715-.618 1.572-.926 2.574-.925 1.002 0 1.86.309 2.576.926.714.618 1.07 1.36 1.07 2.226 0 .866-.358 1.609-1.072 2.226-.715.618-1.573.926-2.574.925Zm18.228 0c-1.002 0-1.86-.308-2.575-.926-.715-.618-1.072-1.36-1.07-2.225 0-.867.357-1.61 1.072-2.227.714-.618 1.572-.926 2.573-.925 1.003 0 1.861.309 2.576.926.715.618 1.071 1.36 1.07 2.226 0 .866-.357 1.609-1.072 2.226-.714.618-1.572.926-2.574.925Zm-18.228-7.88c-1.367 0-2.415-.518-3.145-1.556-.729-1.038-.744-2.069-.045-3.092l2.46-3.861L6.412 7.156H2.766V4.004h5.97l7.747 14.183h12.805l7.064-11.031 3.19 1.497-7.064 11.031a3.454 3.454 0 0 1-1.321 1.222c-.547.289-1.17.433-1.869.433h-13.58l-2.005 3.152h21.874v3.152H13.703Z" fill="#0094FF" style="mix-blend-mode:color-dodge"/></svg>