<svg width="56" height="56" fill="none" xmlns="http://www.w3.org/2000/svg"><path d="M16.333 51.333c-1.283 0-2.382-.457-3.297-1.372-.914-.914-1.371-2.013-1.37-3.294 0-1.284.458-2.383 1.373-3.297.914-.915 2.013-1.372 3.294-1.37 1.284 0 2.383.457 3.297 1.372.915.915 1.372 2.013 1.37 3.295 0 1.283-.457 2.382-1.372 3.297-.915.914-2.013 1.37-3.295 1.37Zm23.334 0c-1.284 0-2.383-.457-3.297-1.372-.915-.914-1.372-2.013-1.37-3.294 0-1.284.457-2.383 1.372-3.297.915-.915 2.013-1.372 3.295-1.37 1.283 0 2.382.457 3.297 1.372.914.915 1.37 2.013 1.37 3.295 0 1.283-.458 2.382-1.373 3.297-.914.914-2.013 1.37-3.294 1.37ZM14.35 14l5.6 11.667h16.333L42.7 14H14.35Zm-2.217-4.667H46.55c.894 0 1.575.4 2.042 1.197.466.798.486 1.605.058 2.42l-8.283 14.933c-.428.778-1.002 1.38-1.722 1.809a4.54 4.54 0 0 1-2.362.641H18.9L16.333 35h28v4.667h-28c-1.75 0-3.072-.769-3.966-2.306-.895-1.537-.934-3.063-.117-4.578l3.15-5.716L7 9.333H2.333V4.667h7.584l2.216 4.666Z" fill="#000"/></svg>