<svg width="69" height="62" fill="none" xmlns="http://www.w3.org/2000/svg"><path d="M31.762 23.557v-7.601h-8.555v-5.068h8.555v-7.6h5.703v7.6h8.554v5.068h-8.554v7.6h-5.703ZM20.356 56.495c-1.569 0-2.912-.496-4.03-1.49-1.117-.993-1.675-2.186-1.673-3.577 0-1.394.559-2.587 1.677-3.58 1.117-.994 2.46-1.49 4.026-1.488 1.568 0 2.911.497 4.029 1.49 1.118.993 1.676 2.186 1.674 3.578 0 1.393-.56 2.587-1.677 3.58-1.118.993-2.46 1.489-4.026 1.487Zm28.514 0c-1.568 0-2.91-.496-4.029-1.49-1.117-.993-1.675-2.186-1.674-3.577 0-1.394.56-2.587 1.677-3.58 1.118-.994 2.46-1.49 4.026-1.488 1.569 0 2.912.497 4.03 1.49 1.117.993 1.675 2.186 1.673 3.578 0 1.393-.559 2.587-1.676 3.58-1.118.993-2.46 1.489-4.027 1.487ZM20.356 43.827c-2.139 0-3.778-.835-4.919-2.504-1.14-1.669-1.164-3.326-.071-4.97l3.85-6.209L8.95 10.889H3.247V5.821h9.339l12.118 22.803h20.032l11.05-17.736 4.99 2.407-11.05 17.736a5.463 5.463 0 0 1-2.068 1.964c-.855.464-1.83.697-2.922.697H23.492l-3.136 5.067h34.217v5.068H20.356Z" fill="#0094FF" style="mix-blend-mode:color-dodge"/></svg>