<svg width="71" height="62" fill="none" xmlns="http://www.w3.org/2000/svg"><path d="M32.446 23.557v-7.601h-8.72v-5.068h8.72v-7.6h5.815v7.6h8.72v5.068h-8.72v7.6h-5.815ZM20.818 56.495c-1.599 0-2.968-.496-4.107-1.49-1.14-.993-1.709-2.186-1.707-3.577 0-1.394.57-2.587 1.71-3.58 1.14-.994 2.507-1.49 4.104-1.488 1.6 0 2.968.497 4.108 1.49 1.14.993 1.708 2.186 1.706 3.578 0 1.393-.57 2.587-1.709 3.58-1.14.993-2.508 1.489-4.105 1.487Zm29.07 0c-1.598 0-2.968-.496-4.107-1.49-1.14-.993-1.708-2.186-1.706-3.577 0-1.394.57-2.587 1.709-3.58 1.14-.994 2.508-1.49 4.105-1.488 1.598 0 2.968.497 4.107 1.49 1.14.993 1.709 2.186 1.707 3.578 0 1.393-.57 2.587-1.71 3.58-1.14.993-2.508 1.489-4.105 1.487Zm-29.07-12.668c-2.18 0-3.852-.835-5.014-2.504-1.163-1.669-1.187-3.326-.073-4.97l3.925-6.209L9.19 10.889H3.376V5.821h9.52l12.355 22.803h20.422l11.265-17.736 5.087 2.407-11.264 17.736a5.525 5.525 0 0 1-2.108 1.964c-.872.464-1.865.697-2.98.697H24.016l-3.198 5.067h34.885v5.068H20.818Z" fill="#0094FF" style="mix-blend-mode:color-dodge"/></svg>