<svg width="49" height="49" fill="none" xmlns="http://www.w3.org/2000/svg"><path d="M7.175 41.824c9.569 9.568 25.08 9.568 34.649 0 9.568-9.569 9.568-25.08 0-34.648-9.57-9.568-25.08-9.568-34.649 0-9.567 9.569-9.567 25.08 0 34.648Zm10.868-32.56 3.646 3.645c.729.73.884 1.856.378 2.756l-1.37 2.432a1.53 1.53 0 0 0 .253 1.836l8.116 8.116a1.53 1.53 0 0 0 1.837.251l2.432-1.37a2.3 2.3 0 0 1 2.756.379l3.647 3.647a2.303 2.303 0 0 1 0 3.253l-1.727 1.727a6.145 6.145 0 0 1-7.42.966l-.165-.094a48.097 48.097 0 0 1-17.38-17.014l-.83-1.384a6.13 6.13 0 0 1 .92-7.492l1.654-1.654a2.299 2.299 0 0 1 3.253 0Z" fill="#57C5EB"/></svg>