<svg width="47" height="47" fill="none" xmlns="http://www.w3.org/2000/svg"><path d="M14 46.667c-1.283 0-2.382-.458-3.297-1.372-.915-.915-1.371-2.013-1.37-3.295 0-1.283.458-2.382 1.372-3.297.915-.915 2.013-1.371 3.295-1.37 1.283 0 2.382.458 3.297 1.372.915.915 1.371 2.013 1.37 3.295 0 1.283-.458 2.382-1.372 3.297-.915.915-2.013 1.371-3.295 1.37Zm23.333 0c-1.283 0-2.382-.458-3.297-1.372-.914-.915-1.37-2.013-1.37-3.295 0-1.283.458-2.382 1.373-3.297.914-.915 2.013-1.371 3.294-1.37 1.284 0 2.383.458 3.297 1.372.915.915 1.372 2.013 1.37 3.295 0 1.283-.457 2.382-1.372 3.297s-2.013 1.371-3.295 1.37ZM12.017 9.333 17.617 21H33.95l6.417-11.667h-28.35ZM9.8 4.667h34.417c.894 0 1.575.399 2.041 1.197.467.798.486 1.604.059 2.42l-8.284 14.933c-.427.777-1.001 1.38-1.722 1.808a4.54 4.54 0 0 1-2.361.642H16.567L14 30.333h28V35H14c-1.75 0-3.072-.768-3.967-2.305-.894-1.537-.933-3.063-.116-4.578l3.15-5.717-8.4-17.733H0V0h7.583L9.8 4.667Z" fill="#000"/></svg>