<svg width="51" height="49" fill="none" xmlns="http://www.w3.org/2000/svg"><path d="M7.924 41.824c9.795 9.568 25.673 9.568 35.468 0 9.795-9.569 9.795-25.08 0-34.648-9.795-9.568-25.673-9.568-35.468 0-9.793 9.569-9.793 25.08 0 34.648Zm11.125-32.56 3.732 3.645c.746.73.905 1.856.387 2.756l-1.402 2.432a1.5 1.5 0 0 0 .259 1.836l8.308 8.116a1.599 1.599 0 0 0 1.88.25l2.49-1.369a2.4 2.4 0 0 1 2.82.379l3.734 3.647c.442.432.69 1.017.69 1.627 0 .61-.248 1.195-.69 1.626l-1.767 1.727a6.348 6.348 0 0 1-3.63 1.743 6.415 6.415 0 0 1-3.966-.777l-.169-.094C24.4 32.72 18.273 26.861 13.933 19.794l-.849-1.384a6.014 6.014 0 0 1-.85-3.904 6.077 6.077 0 0 1 1.791-3.588l1.694-1.654c.218-.214.478-.384.764-.5a2.402 2.402 0 0 1 2.566.5Z" fill="#57C5EB"/></svg>