<svg width="51" height="55" fill="none" xmlns="http://www.w3.org/2000/svg"><path d="M7.345 46.781c9.795 10.572 25.673 10.572 35.468 0 9.795-10.572 9.795-27.708 0-38.28C33.018-2.07 17.14-2.07 7.345 8.501c-9.793 10.572-9.793 27.709 0 38.28ZM18.47 10.807l3.732 4.028c.746.805.905 2.05.387 3.044l-1.402 2.688a1.805 1.805 0 0 0-.188 1.061c.047.367.204.707.446.968l8.309 8.967c.242.261.557.43.896.48.34.05.685-.021.984-.203l2.49-1.514c.447-.272.966-.379 1.475-.304.51.076.982.33 1.346.722l3.733 4.03a2.65 2.65 0 0 1 .69 1.797 2.65 2.65 0 0 1-.69 1.797l-1.767 1.908c-.98 1.056-2.257 1.733-3.63 1.926a5.907 5.907 0 0 1-3.966-.858l-.169-.104c-7.325-4.518-13.452-10.99-17.792-18.798l-.849-1.529a7.217 7.217 0 0 1-.85-4.314c.17-1.5.801-2.895 1.791-3.964l1.693-1.828c.219-.236.479-.423.764-.551a2.203 2.203 0 0 1 1.803 0c.286.128.545.315.764.551Z" fill="#57C5EB"/></svg>